<svg width="60" height="60" viewBox="0 0 60 60" fill="none" xmlns="http://www.w3.org/2000/svg">
<rect width="60" height="60" rx="5" fill="#1B1B1B"/>
<path d="M12.1868 38.336C10.1068 38.336 8.45875 37.76 7.24275 36.608C6.02675 35.44 5.41875 33.776 5.41875 31.616V27.584C5.41875 25.424 6.02675 23.768 7.24275 22.616C8.45875 21.448 10.1068 20.864 12.1868 20.864C14.2508 20.864 15.8428 21.432 16.9628 22.568C18.0988 23.688 18.6668 25.232 18.6668 27.2V27.344H15.5468V27.104C15.5468 26.112 15.2668 25.296 14.7068 24.656C14.1628 24.016 13.3228 23.696 12.1868 23.696C11.0668 23.696 10.1868 24.04 9.54675 24.728C8.90675 25.416 8.58675 26.352 8.58675 27.536V31.664C8.58675 32.832 8.90675 33.768 9.54675 34.472C10.1868 35.16 11.0668 35.504 12.1868 35.504C13.3228 35.504 14.1628 35.184 14.7068 34.544C15.2668 33.888 15.5468 33.072 15.5468 32.096V31.664H18.6668V32C18.6668 33.968 18.0988 35.52 16.9628 36.656C15.8428 37.776 14.2508 38.336 12.1868 38.336ZM22.5921 38L20.3841 21.2H23.5281L25.1601 35.792H25.5921L27.7041 21.2H33.1761L35.2881 35.792H35.7201L37.3521 21.2H40.4961L38.2881 38H32.8161L30.6561 23.072H30.2241L28.0641 38H22.5921ZM48.6426 38.336C47.3466 38.336 46.2026 38.104 45.2106 37.64C44.2186 37.176 43.4426 36.512 42.8826 35.648C42.3226 34.784 42.0426 33.744 42.0426 32.528V31.856H45.1626V32.528C45.1626 33.536 45.4746 34.296 46.0986 34.808C46.7226 35.304 47.5706 35.552 48.6426 35.552C49.7306 35.552 50.5386 35.336 51.0666 34.904C51.6106 34.472 51.8826 33.92 51.8826 33.248C51.8826 32.784 51.7466 32.408 51.4746 32.12C51.2186 31.832 50.8346 31.6 50.3226 31.424C49.8266 31.232 49.2186 31.056 48.4986 30.896L47.9466 30.776C46.7946 30.52 45.8026 30.2 44.9706 29.816C44.1546 29.416 43.5226 28.896 43.0746 28.256C42.6426 27.616 42.4266 26.784 42.4266 25.76C42.4266 24.736 42.6666 23.864 43.1466 23.144C43.6426 22.408 44.3306 21.848 45.2106 21.464C46.1066 21.064 47.1546 20.864 48.3546 20.864C49.5546 20.864 50.6186 21.072 51.5466 21.488C52.4906 21.888 53.2266 22.496 53.7546 23.312C54.2986 24.112 54.5706 25.12 54.5706 26.336V27.056H51.4506V26.336C51.4506 25.696 51.3226 25.184 51.0666 24.8C50.8266 24.4 50.4746 24.112 50.0106 23.936C49.5466 23.744 48.9946 23.648 48.3546 23.648C47.3946 23.648 46.6826 23.832 46.2186 24.2C45.7706 24.552 45.5466 25.04 45.5466 25.664C45.5466 26.08 45.6506 26.432 45.8586 26.72C46.0826 27.008 46.4106 27.248 46.8426 27.44C47.2746 27.632 47.8266 27.8 48.4986 27.944L49.0506 28.064C50.2506 28.32 51.2906 28.648 52.1706 29.048C53.0666 29.448 53.7626 29.976 54.2586 30.632C54.7546 31.288 55.0026 32.128 55.0026 33.152C55.0026 34.176 54.7386 35.08 54.2106 35.864C53.6986 36.632 52.9626 37.24 52.0026 37.688C51.0586 38.12 49.9386 38.336 48.6426 38.336Z" fill="white"/>
</svg>
