<?xml version="1.0" standalone="no"?>
<!DOCTYPE svg PUBLIC "-//W3C//DTD SVG 20010904//EN"
 "http://www.w3.org/TR/2001/REC-SVG-20010904/DTD/svg10.dtd">
<svg version="1.0" xmlns="http://www.w3.org/2000/svg"
 width="300.000000pt" height="300.000000pt" viewBox="0 0 300.000000 300.000000"
 preserveAspectRatio="xMidYMid meet">

<g transform="translate(0.000000,300.000000) scale(0.100000,-0.100000)"
fill="#000000" stroke="none">
<path d="M1320 2990 c-662 -91 -1169 -570 -1297 -1225 -25 -128 -25 -395 1
-530 116 -621 590 -1095 1211 -1211 135 -26 402 -26 530 -1 148 29 279 74 413
142 291 148 513 371 657 660 73 147 104 234 136 385 32 149 33 429 1 576 -66
308 -189 539 -401 757 -217 224 -470 362 -780 428 -110 23 -367 33 -471 19z
m215 -1382 c209 -270 433 -560 497 -645 l117 -155 -27 -22 c-15 -12 -48 -39
-74 -60 l-47 -38 -138 174 c-76 96 -275 352 -443 570 -168 218 -308 397 -312
397 -5 1 -8 -208 -8 -464 l0 -465 -100 0 -100 0 0 600 0 600 128 -1 127 0 380
-491z m582 355 c-4 -75 -7 -175 -7 -222 l0 -86 -95 3 -95 3 0 220 0 219 102 0
101 0 -6 -137z"/>
</g>
</svg>
