<svg width="143" height="142" viewBox="0 0 143 142" fill="none" xmlns="http://www.w3.org/2000/svg">
<path d="M2.21198 112.465H141.505" stroke="#FFF200" stroke-miterlimit="10"/>
<path d="M2.21198 89.7631H141.505" stroke="#FFF200" stroke-miterlimit="10"/>
<path d="M2.21198 71.3747H141.505" stroke="#FFF200" stroke-miterlimit="10"/>
<path d="M2.21198 57.8915H141.505" stroke="#FFF200" stroke-miterlimit="10"/>
<path d="M2.21198 45.5668H141.505" stroke="#FFF200" stroke-miterlimit="10"/>
<path d="M2.21198 35.7071H141.505" stroke="#FFF200" stroke-miterlimit="10"/>
<path d="M2.21198 28.3123H141.505" stroke="#FFF200" stroke-miterlimit="10"/>
<path d="M2.21198 20.9175H141.505" stroke="#FFF200" stroke-miterlimit="10"/>
<path d="M2.21198 13.5227H141.505" stroke="#FFF200" stroke-miterlimit="10"/>
<path d="M2.21198 7.21243H141.505" stroke="#FFF200" stroke-miterlimit="10"/>
<path d="M78.9207 1.71564L88.534 141.009" stroke="#FFF200" stroke-miterlimit="10"/>
<path d="M91.8863 1.71564L122.254 141.009" stroke="#FFF200" stroke-miterlimit="10"/>
<path d="M104.112 1.71564L141.505 100.436" stroke="#FFF200" stroke-miterlimit="10"/>
<path d="M116.117 1.71564L141.505 49.1903" stroke="#FFF200" stroke-miterlimit="10"/>
<path d="M64.8213 1.71564L55.1834 141.009" stroke="#FFF200" stroke-miterlimit="10"/>
<path d="M51.8311 1.71564L21.4631 141.009" stroke="#FFF200" stroke-miterlimit="10"/>
<path d="M39.605 1.71564L2.21198 100.436" stroke="#FFF200" stroke-miterlimit="10"/>
<path d="M27.6008 1.71564L2.21198 49.1903" stroke="#FFF200" stroke-miterlimit="10"/>
<path d="M128.811 1.71564L141.505 20.9175" stroke="#FFF200" stroke-miterlimit="10"/>
<path d="M15.9337 1.71564L2.21199 20.9175" stroke="#FFF200" stroke-miterlimit="10"/>
</svg>
