<svg width="95" height="92" viewBox="0 0 95 92" fill="none" xmlns="http://www.w3.org/2000/svg">
<path fill-rule="evenodd" clip-rule="evenodd" d="M57.8591 38.7612L54.8363 0.227722L49.5466 38.7568C44.5847 39.7535 40.2573 42.5046 37.239 46.3353L27.5276 38.1925L35.6284 48.6931C33.8037 51.7994 32.7574 55.418 32.7574 59.2809C32.7574 61.1823 33.011 63.0245 33.486 64.7755L0.322754 91.1656L39.0555 74.2485C42.8301 77.9401 47.9952 80.2155 53.6919 80.2155C60.1058 80.2155 65.8459 77.3311 69.686 72.7887L94.2021 83.8033L73.6857 65.5048C74.297 63.5386 74.6265 61.4482 74.6265 59.2809C74.6265 49.146 67.4246 40.6932 57.8591 38.7612Z" fill="#FFE817"/>
</svg>
