<svg width="102" height="102" viewBox="0 0 102 102" fill="none" xmlns="http://www.w3.org/2000/svg">
<path fill-rule="evenodd" clip-rule="evenodd" d="M30.8872 11.1656C28.7109 12.932 27.3263 15.6575 26.7906 17.6019C26.1705 19.8526 23.8433 21.1744 21.5927 20.5543C19.342 19.9343 18.0202 17.6071 18.6403 15.3564C19.5099 12.2003 21.6696 7.75891 25.5595 4.60168C29.697 1.24337 35.5013 -0.395392 42.646 2.01205C47.3794 3.60702 50.5358 6.72982 52.0508 10.7873C53.4946 14.6543 53.2997 18.9535 52.3318 22.9254C50.4095 30.8132 45.0417 39.0509 38.9048 43.8537C35.9026 46.2033 32.2336 48.2536 28.7736 50.1721C28.6317 50.2508 28.4899 50.3294 28.3484 50.4078C24.9262 52.3045 21.6378 54.1272 18.7003 56.2104C12.6887 60.4739 8.95978 65.2222 9.4454 72.5673C10.0075 81.0686 13.1914 86.524 17.5968 89.4773C22.0595 92.4691 28.6141 93.4572 37.0095 91.2432C39.6092 90.5576 41.4191 89.4348 42.7572 87.9909C41.8124 87.1137 40.8945 86.1757 40.0073 85.1753C33.9087 78.2981 31.4695 71.3554 32.0955 64.5656C32.7065 57.9371 36.1768 52.1858 40.3961 47.4224C47.004 39.9624 56.5546 33.8213 62.9058 29.7374C64.5071 28.7078 65.905 27.8089 67.0011 27.0527C68.9226 25.7269 71.5551 26.2099 72.8808 28.1314C74.2066 30.0529 73.7236 32.6853 71.8021 34.0111C70.3652 35.0025 68.6937 36.0809 66.8821 37.2498C60.5304 41.3478 52.4559 46.5573 46.7244 53.0279C43.1237 57.093 40.8948 61.2079 40.5137 65.3417C40.1475 69.3143 41.4232 74.0301 46.3325 79.5662C46.3982 79.6402 46.464 79.7138 46.53 79.7869C46.9366 78.066 47.2624 76.2168 47.6119 74.2322C47.7986 73.1725 47.992 72.0742 48.2082 70.9363C49.1832 65.8047 50.7188 59.4036 55.9677 55.5441C68.5831 46.2681 90.3611 48.3221 99.5028 69.115C101.999 74.7925 100.996 80.4428 97.9338 85.0629C94.9583 89.5521 90.0798 93.076 84.5118 95.3305C74.4826 99.3914 61.0938 99.7692 49.5641 93.0475C47.1475 95.9253 43.8021 98.1949 39.1653 99.4177C29.2062 102.044 19.9555 101.237 12.8893 96.4993C5.76561 91.7237 1.69692 83.5167 1.00986 73.125C0.24636 61.577 6.66664 54.3805 13.8098 49.3146C17.1422 46.9513 20.8071 44.921 24.1219 43.0847C24.3071 42.982 24.4912 42.88 24.6741 42.7786C28.2453 40.7985 31.31 39.0624 33.6946 37.1962C38.3315 33.5673 42.6444 26.9716 44.1182 20.9238C44.8483 17.9279 44.7803 15.4838 44.1308 13.7443C43.5525 12.1954 42.3955 10.8486 39.9465 10.0234C35.5992 8.55858 32.8157 9.60024 30.8872 11.1656ZM53.625 85.6259C62.619 90.9522 73.2718 90.761 81.339 87.4945C85.7809 85.6959 89.093 83.0992 90.8873 80.3922C92.5947 77.8162 92.9409 75.1949 91.7638 72.5175C84.9791 57.0858 69.5956 56.0169 60.9758 62.355C58.6873 64.0377 57.5248 67.1918 56.5136 72.5142C56.3567 73.34 56.2039 74.2244 56.044 75.1498C55.4844 78.3885 54.8379 82.1301 53.625 85.6259Z" fill="black" stroke="#FFE817"/>
</svg>
