<svg width="115" height="99" viewBox="0 0 115 99" fill="none" xmlns="http://www.w3.org/2000/svg">
<g clip-path="url(#clip0_4_9)">
<path d="M57.5038 76.167C89.0522 76.167 114.627 64.0925 114.627 49.1979C114.627 34.3032 89.0522 22.2288 57.5038 22.2288C25.9553 22.2288 0.380249 34.3032 0.380249 49.1979C0.380249 64.0925 25.9553 76.167 57.5038 76.167Z" stroke="#FFF200" stroke-miterlimit="10"/>
<path d="M63.8678 75.3955C94.514 67.8707 116.507 50.0415 112.99 35.5728C109.474 21.1042 81.7797 15.4751 51.1335 22.9999C20.4874 30.5248 -1.5056 48.354 2.01087 62.8226C5.52733 77.2913 33.2216 82.9204 63.8678 75.3955Z" stroke="#FFF200" stroke-miterlimit="10"/>
<path d="M69.5395 73.2996C97.7375 59.0776 115.209 36.7562 108.563 23.4433C101.916 10.1305 73.6696 10.8676 45.4716 25.0896C17.2736 39.3116 -0.197665 61.633 6.4485 74.9458C13.0947 88.2587 41.3415 87.5216 69.5395 73.2996Z" stroke="#FFF200" stroke-miterlimit="10"/>
<path d="M74.574 70.0006C98.9105 49.8234 110.995 24.1523 101.566 12.6625C92.1371 1.17283 64.7647 8.21542 40.4282 28.3926C16.0917 48.5698 4.00691 74.2409 13.436 85.7306C22.8651 97.2204 50.2376 90.1778 74.574 70.0006Z" stroke="#FFF200" stroke-miterlimit="10"/>
<path d="M78.9134 65.4592C97.9371 40.1608 103.775 12.3715 91.9526 3.39006C80.1303 -5.5914 55.1246 7.63609 36.1009 32.9345C17.0772 58.2329 11.2393 86.0222 23.0616 95.0036C34.884 103.985 59.8896 90.7576 78.9134 65.4592Z" stroke="#FFF200" stroke-miterlimit="10"/>
</g>
<defs>
<clipPath id="clip0_4_9">
<rect width="115" height="98" fill="white" transform="translate(0 0.197876)"/>
</clipPath>
</defs>
</svg>
