<svg width="90" height="117" viewBox="0 0 90 117" fill="none" xmlns="http://www.w3.org/2000/svg">
<rect x="0.619019" y="15.1567" width="88.412" height="88.4134" rx="44.206" fill="#FFE817" stroke="#FFE817"/>
<mask id="path-2-inside-1_8_1566" fill="white">
<path fill-rule="evenodd" clip-rule="evenodd" d="M25.1889 7.30581C25.3773 7.54681 25.4308 7.67285 25.5413 8.13618C25.8113 9.26756 25.8833 9.50757 26.2281 10.4252C26.4227 10.943 26.6435 11.5846 26.7188 11.851C26.8875 12.4477 27.3399 13.5892 27.7481 14.4485C28.3989 15.8186 29.2636 17.0572 30.4086 18.2594C31.8121 19.733 32.1178 20.3117 32.7922 22.7714L33.1206 23.9688L33.427 24.3271C33.9465 24.9346 34.8287 25.6761 35.9813 26.4738C36.3128 26.7033 36.6511 26.9523 36.7331 27.0273C37.3936 27.6316 36.9556 29.513 35.7924 31.0679C35.4401 31.5388 34.8967 32.0451 34.5687 32.2081C34.1659 32.4081 34.0136 32.7964 34.1788 33.2016C34.3121 33.5282 34.3981 33.9372 34.4842 34.6536C34.5897 35.5312 34.5994 35.5669 35.1048 36.9488C35.6305 38.3859 35.7371 38.7481 35.7929 39.288C35.8511 39.851 35.9406 40.0752 36.137 40.1512C36.4062 40.2552 36.4253 40.2788 36.622 40.749C36.7285 41.0036 36.9341 41.391 37.0788 41.6099C37.3821 42.0686 37.5192 42.3817 37.6041 42.8091C37.7541 43.5642 38.1467 44.2248 39.0495 45.2407C39.9869 46.2956 40.5247 46.7295 41.7001 47.379C43.0464 48.123 44.8097 48.7813 45.9269 48.9571C47.0262 49.13 47.8166 49.3144 48.9446 49.6609C49.2998 49.77 50.0676 49.9887 50.6509 50.1469C51.2341 50.3051 51.7944 50.4626 51.8959 50.4968C51.9975 50.5312 52.2979 50.5919 52.5636 50.6318C52.8292 50.6717 53.3747 50.7925 53.7758 50.9002C54.1769 51.0079 54.9022 51.1627 55.3877 51.2442C56.4836 51.4281 56.8322 51.5143 57.3552 51.7304C57.5821 51.8242 57.9997 51.9591 58.2834 52.0303C58.8576 52.1744 59.3063 52.404 59.7598 52.7857C59.9264 52.9259 60.2932 53.2205 60.5749 53.4402C61.489 54.1532 61.5885 54.2415 62.4176 55.0745C62.8677 55.5268 63.4174 56.0661 63.6393 56.2731C63.8612 56.48 64.1299 56.7754 64.2365 56.9293C64.3431 57.0833 64.6005 57.4599 64.8085 57.7663C65.0166 58.0726 65.3997 58.6115 65.6601 58.9638C66.2791 59.8015 66.5058 60.2407 67.1097 61.7718C67.3858 62.4718 67.6996 63.2482 67.8071 63.497C67.9766 63.8894 68.0133 64.0427 68.0827 64.6502C68.1435 65.1814 68.2459 65.6638 68.506 66.6439C68.6948 67.355 68.9069 68.0816 68.9775 68.2587C69.311 69.0953 69.8079 70.0984 70.0781 70.4804C70.2421 70.7124 70.5081 71.129 70.6692 71.4062C70.9768 71.9356 71.6038 72.945 72.4854 74.3299C72.8844 74.9569 73.1011 75.2369 73.3811 75.4874C73.875 75.9292 74.4365 76.6455 74.956 77.4966C75.4835 78.3606 75.6547 78.568 76.0049 78.7675C76.4836 79.0402 76.6127 79.1694 76.7287 79.492C76.8386 79.7977 76.9553 79.9233 77.6675 80.5035C77.862 80.6619 77.9803 80.8306 78.1699 81.2196C78.4981 81.8929 78.8467 82.3638 79.2356 82.6592C79.5025 82.862 79.5717 82.9517 79.6647 83.2158C79.7257 83.3891 79.8878 83.7555 80.0248 84.0301C80.3346 84.6505 80.8108 85.8397 80.9139 86.2503C81.1281 87.1028 81.1922 87.3893 81.2398 87.7064C81.2683 87.8966 81.3627 88.2711 81.4495 88.5386C81.6559 89.1749 81.6699 89.5724 81.5052 90.1181C81.3597 90.6002 81.2523 90.7852 80.9875 91.0098C80.8758 91.1046 80.633 91.3651 80.4481 91.5886C80.1023 92.0064 79.7665 92.2953 79.5184 92.3885C79.403 92.4318 79.3324 92.4012 79.1322 92.2211C78.8462 91.9639 78.7249 91.9607 78.5394 92.2055C78.2722 92.5581 78.047 93.9164 77.7321 97.075C77.6154 98.2455 77.4385 99.7265 77.339 100.366C77.0901 101.964 77.0476 102.377 76.9878 103.775C76.8731 106.453 76.8666 106.518 76.6747 106.932C76.5804 107.136 76.4181 107.491 76.314 107.722C75.9912 108.437 75.8051 108.784 75.6063 109.041L75.4149 109.289L74.6445 109.118C74.2208 109.023 73.7406 108.894 73.5774 108.83L73.2805 108.714L72.8814 108.964C72.4058 109.261 72.1806 109.282 71.7644 109.067C71.5755 108.969 71.3682 108.923 71.1061 108.92C70.8957 108.918 70.7129 108.903 70.6999 108.887C70.5753 108.734 71.1275 108.037 72.3062 106.86C73.9153 105.254 74.143 104.946 74.284 104.184C74.3941 103.59 74.6898 99.2542 74.7747 96.9906C74.8102 96.0444 74.8091 96.0263 74.7014 95.76C74.5321 95.3413 74.2337 94.8885 73.5566 94.023C72.775 93.0239 71.8279 91.9535 71.343 91.5214C70.9517 91.1726 70.3058 90.7802 69.7075 90.5277C69.5116 90.445 69.1619 90.2218 68.9304 90.0316C68.3485 89.5539 67.756 89.1425 66.5266 88.3627C65.0884 87.4504 64.339 87.0381 63.3599 86.6203C62.3455 86.1874 61.2095 85.5805 60.562 85.1254C59.9925 84.7251 59.499 84.4424 59.0074 84.235C58.2886 83.9315 57.9651 83.7023 57.4359 83.1212C56.7314 82.3474 56.489 82.4792 56.5191 83.6196C56.551 84.8263 57.0534 86.2701 58.4892 89.2821C59.267 90.9137 59.3426 91.0496 59.8229 91.681C60.0252 91.9468 60.1986 92.2502 60.2925 92.5025C60.4232 92.8537 60.4457 92.9888 60.4775 93.612C60.5075 94.2002 60.5009 94.363 60.4387 94.5636C60.3974 94.6966 59.9802 95.4277 59.5117 96.1882C57.4783 99.4885 57.2679 99.9239 57.098 101.182C56.991 101.975 56.8609 102.381 56.4841 103.098C56.1264 103.779 56.0114 104.099 55.8816 104.774C55.7054 105.691 55.4361 106.311 55.1267 106.513C55.0588 106.557 54.505 106.743 53.8961 106.926C53.2872 107.109 52.5887 107.354 52.3439 107.47C51.7615 107.748 51.6682 107.755 51.4658 107.539C51.3053 107.368 51.2913 107.365 50.992 107.444C50.6905 107.524 50.6789 107.521 50.4738 107.333C50.3584 107.227 50.124 107.093 49.9529 107.035C49.4247 106.855 49.4259 106.861 49.8118 106.272C50.2735 105.567 50.8409 104.914 51.1273 104.758C51.257 104.687 51.6683 104.507 52.0414 104.357C52.4145 104.207 52.8281 104.002 52.9605 103.9C53.5915 103.415 55.1025 100.639 55.6665 98.9281C55.9306 98.1267 56.2878 96.8968 56.4162 96.3467C56.5602 95.7295 56.5668 95.1803 56.4406 94.3247C56.2117 92.7728 55.8165 91.8958 54.8396 90.7719C54.3272 90.1823 53.728 89.7046 51.8611 88.3976C50.1354 87.1893 50.0136 87.0915 49.529 86.5226C49.3097 86.2652 49.0183 85.9912 48.8815 85.9137C48.1506 85.4998 47.4558 84.826 47.1574 84.2416C47.0652 84.0612 46.7616 83.5267 46.4826 83.0539C45.5373 81.4517 45.2299 80.6855 44.8978 79.1036C44.7854 78.5678 44.6283 77.9493 44.5489 77.7291L44.4045 77.3287L44.2319 77.393C43.9448 77.5 43.9595 77.5063 43.5909 77.1187C43.4126 76.9312 43.2516 76.7795 43.2332 76.7817C43.2148 76.7839 43.1556 76.9268 43.1017 77.0992C43.0198 77.3609 42.9734 77.4291 42.8219 77.5105C42.5734 77.6441 42.2332 77.6858 42.0532 77.6049C41.9709 77.5678 41.8074 77.5295 41.6898 77.5197C41.4541 77.5 41.4142 77.4589 41.3305 77.1489C41.1943 76.6451 40.9948 76.6016 40.854 77.0449C40.749 77.3753 40.6419 77.4379 40.5285 77.2353C40.4598 77.1125 40.4518 77.1124 40.3011 77.2317C40.123 77.3727 39.7864 77.4284 39.3672 77.3863C39.0462 77.3541 39.0159 77.3712 38.682 77.774C38.4781 78.0199 38.4697 78.0239 38.1308 78.0326C37.9206 78.038 37.6605 77.9909 37.463 77.9117C36.4849 77.5196 35.9608 77.4258 35.7504 77.6052C35.5333 77.7902 35.4928 77.901 35.5639 78.1162C35.6008 78.228 35.616 78.4142 35.6023 78.5871C35.5715 78.9779 35.3113 79.9963 35.1078 80.5233C35.0155 80.7621 34.7809 81.4011 34.5864 81.9434C34.3919 82.4858 34.1442 83.1195 34.0359 83.3518C33.789 83.8817 33.3047 85.3901 33.1693 86.0511C33.113 86.3262 33.0119 87.0253 32.9448 87.6046C32.7698 89.1142 32.7077 89.3757 32.4377 89.7398C32.2143 90.0408 31.595 91.3753 31.5983 91.5484C31.5993 91.5998 31.5334 91.8442 31.4519 92.0915C31.3704 92.3388 31.2725 92.7151 31.2344 92.9275C31.1962 93.1399 31.0704 93.5686 30.9547 93.8801C30.8391 94.1917 30.697 94.6273 30.639 94.8482C30.5809 95.0691 30.3793 95.5909 30.1909 96.0077C29.6226 97.2651 28.9842 99.2241 28.6996 100.584C28.6104 101.01 28.45 101.606 28.3433 101.91C28.2366 102.213 28.0275 102.803 27.8787 103.221C27.73 103.64 27.5123 104.324 27.3951 104.742C27.2779 105.16 27.1305 105.585 27.0675 105.687C26.6466 106.366 25.057 106.965 22.6556 107.348C21.3765 107.552 20.4471 107.583 20.0077 107.435L19.6978 107.331L19.2764 107.507C18.7556 107.724 17.6501 107.881 17.3077 107.787C17.0906 107.727 16.8558 107.474 16.8524 107.297C16.8515 107.25 16.937 107.13 17.0423 107.03C17.1476 106.93 17.466 106.578 17.7499 106.248C18.4848 105.393 18.7486 105.137 19.6559 104.4C20.3514 103.835 20.5136 103.674 20.8488 103.211C21.3907 102.463 21.8575 101.612 22.029 101.059C22.2309 100.407 22.2939 99.9215 22.3742 98.3989C22.4443 97.0695 22.494 96.6099 22.7003 95.3812C22.7603 95.0241 22.8404 94.299 22.8784 93.7698C22.9459 92.8282 22.9647 92.3453 23.0491 89.3622C23.0971 87.6687 23.175 86.3364 23.3787 83.727C23.6589 80.1362 23.7104 78.3037 23.616 75.2744C23.5248 72.3492 23.3954 71.3723 22.9408 70.1771C22.6483 69.4081 22.4156 69.027 21.5767 67.9428C20.8269 66.9737 20.4715 66.3639 20.3496 65.8373C20.3049 65.6444 20.1811 65.2549 20.0744 64.9718C19.8991 64.507 19.7899 64.0378 19.5132 62.5606C19.4652 62.3043 19.36 61.9044 19.2795 61.6717C19.199 61.4391 19.0984 61.0082 19.0559 60.7141C19.0018 60.3386 18.9365 60.0961 18.8368 59.8994C18.7092 59.648 18.6861 59.5276 18.611 58.7196C18.5117 57.6526 18.3186 56.3964 18.1423 55.6717C17.9199 54.7574 17.8615 54.1135 17.7666 51.5252C17.7175 50.1852 17.6441 48.5124 17.6034 47.8078C17.5268 46.4788 17.5281 46.4133 17.6529 45.1682C17.7107 44.5913 17.721 44.1787 17.6968 43.4146C17.6677 42.5015 17.6731 42.3896 17.758 42.1177C17.8091 41.954 17.8707 41.5745 17.8946 41.2743C18.0015 39.9377 18.0976 39.0976 18.2138 38.4815C18.2827 38.1166 18.3661 37.6717 18.3992 37.4928C18.4364 37.292 18.4723 36.4651 18.4931 35.3337C18.5298 33.3312 18.5491 33.0075 18.7022 31.8196C18.8551 30.6339 18.9091 30.3535 19.2327 29.0665C19.7402 27.0488 19.7501 26.6131 19.338 24.4215C18.9252 22.2257 18.3842 20.1454 17.7414 18.2818L17.3729 17.2137L17.3624 16.5792C17.3485 15.735 17.4328 15.2926 17.685 14.8853C17.9617 14.4385 18.0968 14.4357 18.5711 14.8672C18.7717 15.0497 19.1366 15.4264 19.3821 15.7043C20.2082 16.6395 20.4026 16.8059 20.635 16.7771C20.9504 16.7379 21.0678 16.2464 21.2608 14.1566C21.4043 12.6028 21.5734 11.6485 21.8235 10.9811C22.0099 10.4835 22.5244 9.54499 22.9257 8.97047C23.4778 8.1801 24.5983 7.0674 24.8769 7.03282C24.9263 7.0267 25.0666 7.14952 25.1889 7.30581Z"/>
</mask>
<path fill-rule="evenodd" clip-rule="evenodd" d="M25.1889 7.30581C25.3773 7.54681 25.4308 7.67285 25.5413 8.13618C25.8113 9.26756 25.8833 9.50757 26.2281 10.4252C26.4227 10.943 26.6435 11.5846 26.7188 11.851C26.8875 12.4477 27.3399 13.5892 27.7481 14.4485C28.3989 15.8186 29.2636 17.0572 30.4086 18.2594C31.8121 19.733 32.1178 20.3117 32.7922 22.7714L33.1206 23.9688L33.427 24.3271C33.9465 24.9346 34.8287 25.6761 35.9813 26.4738C36.3128 26.7033 36.6511 26.9523 36.7331 27.0273C37.3936 27.6316 36.9556 29.513 35.7924 31.0679C35.4401 31.5388 34.8967 32.0451 34.5687 32.2081C34.1659 32.4081 34.0136 32.7964 34.1788 33.2016C34.3121 33.5282 34.3981 33.9372 34.4842 34.6536C34.5897 35.5312 34.5994 35.5669 35.1048 36.9488C35.6305 38.3859 35.7371 38.7481 35.7929 39.288C35.8511 39.851 35.9406 40.0752 36.137 40.1512C36.4062 40.2552 36.4253 40.2788 36.622 40.749C36.7285 41.0036 36.9341 41.391 37.0788 41.6099C37.3821 42.0686 37.5192 42.3817 37.6041 42.8091C37.7541 43.5642 38.1467 44.2248 39.0495 45.2407C39.9869 46.2956 40.5247 46.7295 41.7001 47.379C43.0464 48.123 44.8097 48.7813 45.9269 48.9571C47.0262 49.13 47.8166 49.3144 48.9446 49.6609C49.2998 49.77 50.0676 49.9887 50.6509 50.1469C51.2341 50.3051 51.7944 50.4626 51.8959 50.4968C51.9975 50.5312 52.2979 50.5919 52.5636 50.6318C52.8292 50.6717 53.3747 50.7925 53.7758 50.9002C54.1769 51.0079 54.9022 51.1627 55.3877 51.2442C56.4836 51.4281 56.8322 51.5143 57.3552 51.7304C57.5821 51.8242 57.9997 51.9591 58.2834 52.0303C58.8576 52.1744 59.3063 52.404 59.7598 52.7857C59.9264 52.9259 60.2932 53.2205 60.5749 53.4402C61.489 54.1532 61.5885 54.2415 62.4176 55.0745C62.8677 55.5268 63.4174 56.0661 63.6393 56.2731C63.8612 56.48 64.1299 56.7754 64.2365 56.9293C64.3431 57.0833 64.6005 57.4599 64.8085 57.7663C65.0166 58.0726 65.3997 58.6115 65.6601 58.9638C66.2791 59.8015 66.5058 60.2407 67.1097 61.7718C67.3858 62.4718 67.6996 63.2482 67.8071 63.497C67.9766 63.8894 68.0133 64.0427 68.0827 64.6502C68.1435 65.1814 68.2459 65.6638 68.506 66.6439C68.6948 67.355 68.9069 68.0816 68.9775 68.2587C69.311 69.0953 69.8079 70.0984 70.0781 70.4804C70.2421 70.7124 70.5081 71.129 70.6692 71.4062C70.9768 71.9356 71.6038 72.945 72.4854 74.3299C72.8844 74.9569 73.1011 75.2369 73.3811 75.4874C73.875 75.9292 74.4365 76.6455 74.956 77.4966C75.4835 78.3606 75.6547 78.568 76.0049 78.7675C76.4836 79.0402 76.6127 79.1694 76.7287 79.492C76.8386 79.7977 76.9553 79.9233 77.6675 80.5035C77.862 80.6619 77.9803 80.8306 78.1699 81.2196C78.4981 81.8929 78.8467 82.3638 79.2356 82.6592C79.5025 82.862 79.5717 82.9517 79.6647 83.2158C79.7257 83.3891 79.8878 83.7555 80.0248 84.0301C80.3346 84.6505 80.8108 85.8397 80.9139 86.2503C81.1281 87.1028 81.1922 87.3893 81.2398 87.7064C81.2683 87.8966 81.3627 88.2711 81.4495 88.5386C81.6559 89.1749 81.6699 89.5724 81.5052 90.1181C81.3597 90.6002 81.2523 90.7852 80.9875 91.0098C80.8758 91.1046 80.633 91.3651 80.4481 91.5886C80.1023 92.0064 79.7665 92.2953 79.5184 92.3885C79.403 92.4318 79.3324 92.4012 79.1322 92.2211C78.8462 91.9639 78.7249 91.9607 78.5394 92.2055C78.2722 92.5581 78.047 93.9164 77.7321 97.075C77.6154 98.2455 77.4385 99.7265 77.339 100.366C77.0901 101.964 77.0476 102.377 76.9878 103.775C76.8731 106.453 76.8666 106.518 76.6747 106.932C76.5804 107.136 76.4181 107.491 76.314 107.722C75.9912 108.437 75.8051 108.784 75.6063 109.041L75.4149 109.289L74.6445 109.118C74.2208 109.023 73.7406 108.894 73.5774 108.83L73.2805 108.714L72.8814 108.964C72.4058 109.261 72.1806 109.282 71.7644 109.067C71.5755 108.969 71.3682 108.923 71.1061 108.92C70.8957 108.918 70.7129 108.903 70.6999 108.887C70.5753 108.734 71.1275 108.037 72.3062 106.86C73.9153 105.254 74.143 104.946 74.284 104.184C74.3941 103.59 74.6898 99.2542 74.7747 96.9906C74.8102 96.0444 74.8091 96.0263 74.7014 95.76C74.5321 95.3413 74.2337 94.8885 73.5566 94.023C72.775 93.0239 71.8279 91.9535 71.343 91.5214C70.9517 91.1726 70.3058 90.7802 69.7075 90.5277C69.5116 90.445 69.1619 90.2218 68.9304 90.0316C68.3485 89.5539 67.756 89.1425 66.5266 88.3627C65.0884 87.4504 64.339 87.0381 63.3599 86.6203C62.3455 86.1874 61.2095 85.5805 60.562 85.1254C59.9925 84.7251 59.499 84.4424 59.0074 84.235C58.2886 83.9315 57.9651 83.7023 57.4359 83.1212C56.7314 82.3474 56.489 82.4792 56.5191 83.6196C56.551 84.8263 57.0534 86.2701 58.4892 89.2821C59.267 90.9137 59.3426 91.0496 59.8229 91.681C60.0252 91.9468 60.1986 92.2502 60.2925 92.5025C60.4232 92.8537 60.4457 92.9888 60.4775 93.612C60.5075 94.2002 60.5009 94.363 60.4387 94.5636C60.3974 94.6966 59.9802 95.4277 59.5117 96.1882C57.4783 99.4885 57.2679 99.9239 57.098 101.182C56.991 101.975 56.8609 102.381 56.4841 103.098C56.1264 103.779 56.0114 104.099 55.8816 104.774C55.7054 105.691 55.4361 106.311 55.1267 106.513C55.0588 106.557 54.505 106.743 53.8961 106.926C53.2872 107.109 52.5887 107.354 52.3439 107.47C51.7615 107.748 51.6682 107.755 51.4658 107.539C51.3053 107.368 51.2913 107.365 50.992 107.444C50.6905 107.524 50.6789 107.521 50.4738 107.333C50.3584 107.227 50.124 107.093 49.9529 107.035C49.4247 106.855 49.4259 106.861 49.8118 106.272C50.2735 105.567 50.8409 104.914 51.1273 104.758C51.257 104.687 51.6683 104.507 52.0414 104.357C52.4145 104.207 52.8281 104.002 52.9605 103.9C53.5915 103.415 55.1025 100.639 55.6665 98.9281C55.9306 98.1267 56.2878 96.8968 56.4162 96.3467C56.5602 95.7295 56.5668 95.1803 56.4406 94.3247C56.2117 92.7728 55.8165 91.8958 54.8396 90.7719C54.3272 90.1823 53.728 89.7046 51.8611 88.3976C50.1354 87.1893 50.0136 87.0915 49.529 86.5226C49.3097 86.2652 49.0183 85.9912 48.8815 85.9137C48.1506 85.4998 47.4558 84.826 47.1574 84.2416C47.0652 84.0612 46.7616 83.5267 46.4826 83.0539C45.5373 81.4517 45.2299 80.6855 44.8978 79.1036C44.7854 78.5678 44.6283 77.9493 44.5489 77.7291L44.4045 77.3287L44.2319 77.393C43.9448 77.5 43.9595 77.5063 43.5909 77.1187C43.4126 76.9312 43.2516 76.7795 43.2332 76.7817C43.2148 76.7839 43.1556 76.9268 43.1017 77.0992C43.0198 77.3609 42.9734 77.4291 42.8219 77.5105C42.5734 77.6441 42.2332 77.6858 42.0532 77.6049C41.9709 77.5678 41.8074 77.5295 41.6898 77.5197C41.4541 77.5 41.4142 77.4589 41.3305 77.1489C41.1943 76.6451 40.9948 76.6016 40.854 77.0449C40.749 77.3753 40.6419 77.4379 40.5285 77.2353C40.4598 77.1125 40.4518 77.1124 40.3011 77.2317C40.123 77.3727 39.7864 77.4284 39.3672 77.3863C39.0462 77.3541 39.0159 77.3712 38.682 77.774C38.4781 78.0199 38.4697 78.0239 38.1308 78.0326C37.9206 78.038 37.6605 77.9909 37.463 77.9117C36.4849 77.5196 35.9608 77.4258 35.7504 77.6052C35.5333 77.7902 35.4928 77.901 35.5639 78.1162C35.6008 78.228 35.616 78.4142 35.6023 78.5871C35.5715 78.9779 35.3113 79.9963 35.1078 80.5233C35.0155 80.7621 34.7809 81.4011 34.5864 81.9434C34.3919 82.4858 34.1442 83.1195 34.0359 83.3518C33.789 83.8817 33.3047 85.3901 33.1693 86.0511C33.113 86.3262 33.0119 87.0253 32.9448 87.6046C32.7698 89.1142 32.7077 89.3757 32.4377 89.7398C32.2143 90.0408 31.595 91.3753 31.5983 91.5484C31.5993 91.5998 31.5334 91.8442 31.4519 92.0915C31.3704 92.3388 31.2725 92.7151 31.2344 92.9275C31.1962 93.1399 31.0704 93.5686 30.9547 93.8801C30.8391 94.1917 30.697 94.6273 30.639 94.8482C30.5809 95.0691 30.3793 95.5909 30.1909 96.0077C29.6226 97.2651 28.9842 99.2241 28.6996 100.584C28.6104 101.01 28.45 101.606 28.3433 101.91C28.2366 102.213 28.0275 102.803 27.8787 103.221C27.73 103.64 27.5123 104.324 27.3951 104.742C27.2779 105.16 27.1305 105.585 27.0675 105.687C26.6466 106.366 25.057 106.965 22.6556 107.348C21.3765 107.552 20.4471 107.583 20.0077 107.435L19.6978 107.331L19.2764 107.507C18.7556 107.724 17.6501 107.881 17.3077 107.787C17.0906 107.727 16.8558 107.474 16.8524 107.297C16.8515 107.25 16.937 107.13 17.0423 107.03C17.1476 106.93 17.466 106.578 17.7499 106.248C18.4848 105.393 18.7486 105.137 19.6559 104.4C20.3514 103.835 20.5136 103.674 20.8488 103.211C21.3907 102.463 21.8575 101.612 22.029 101.059C22.2309 100.407 22.2939 99.9215 22.3742 98.3989C22.4443 97.0695 22.494 96.6099 22.7003 95.3812C22.7603 95.0241 22.8404 94.299 22.8784 93.7698C22.9459 92.8282 22.9647 92.3453 23.0491 89.3622C23.0971 87.6687 23.175 86.3364 23.3787 83.727C23.6589 80.1362 23.7104 78.3037 23.616 75.2744C23.5248 72.3492 23.3954 71.3723 22.9408 70.1771C22.6483 69.4081 22.4156 69.027 21.5767 67.9428C20.8269 66.9737 20.4715 66.3639 20.3496 65.8373C20.3049 65.6444 20.1811 65.2549 20.0744 64.9718C19.8991 64.507 19.7899 64.0378 19.5132 62.5606C19.4652 62.3043 19.36 61.9044 19.2795 61.6717C19.199 61.4391 19.0984 61.0082 19.0559 60.7141C19.0018 60.3386 18.9365 60.0961 18.8368 59.8994C18.7092 59.648 18.6861 59.5276 18.611 58.7196C18.5117 57.6526 18.3186 56.3964 18.1423 55.6717C17.9199 54.7574 17.8615 54.1135 17.7666 51.5252C17.7175 50.1852 17.6441 48.5124 17.6034 47.8078C17.5268 46.4788 17.5281 46.4133 17.6529 45.1682C17.7107 44.5913 17.721 44.1787 17.6968 43.4146C17.6677 42.5015 17.6731 42.3896 17.758 42.1177C17.8091 41.954 17.8707 41.5745 17.8946 41.2743C18.0015 39.9377 18.0976 39.0976 18.2138 38.4815C18.2827 38.1166 18.3661 37.6717 18.3992 37.4928C18.4364 37.292 18.4723 36.4651 18.4931 35.3337C18.5298 33.3312 18.5491 33.0075 18.7022 31.8196C18.8551 30.6339 18.9091 30.3535 19.2327 29.0665C19.7402 27.0488 19.7501 26.6131 19.338 24.4215C18.9252 22.2257 18.3842 20.1454 17.7414 18.2818L17.3729 17.2137L17.3624 16.5792C17.3485 15.735 17.4328 15.2926 17.685 14.8853C17.9617 14.4385 18.0968 14.4357 18.5711 14.8672C18.7717 15.0497 19.1366 15.4264 19.3821 15.7043C20.2082 16.6395 20.4026 16.8059 20.635 16.7771C20.9504 16.7379 21.0678 16.2464 21.2608 14.1566C21.4043 12.6028 21.5734 11.6485 21.8235 10.9811C22.0099 10.4835 22.5244 9.54499 22.9257 8.97047C23.4778 8.1801 24.5983 7.0674 24.8769 7.03282C24.9263 7.0267 25.0666 7.14952 25.1889 7.30581Z" fill="#111111" stroke="#FFE817" stroke-width="2" mask="url(#path-2-inside-1_8_1566)"/>
</svg>
