<svg width="99" height="99" viewBox="0 0 99 99" fill="none" xmlns="http://www.w3.org/2000/svg">
<g clip-path="url(#clip0_4_1539)">
<path d="M49.4792 73.2901C76.1601 73.2901 97.7892 62.536 97.7892 49.2701C97.7892 36.0042 76.1601 25.2501 49.4792 25.2501C22.7983 25.2501 1.16919 36.0042 1.16919 49.2701C1.16919 62.536 22.7983 73.2901 49.4792 73.2901Z" stroke="#FFF200" stroke-miterlimit="10"/>
<path d="M49.4792 67.1301C59.4204 67.1301 67.4792 59.0713 67.4792 49.1301C67.4792 39.189 59.4204 31.1301 49.4792 31.1301C39.5381 31.1301 31.4792 39.189 31.4792 49.1301C31.4792 59.0713 39.5381 67.1301 49.4792 67.1301Z" stroke="#FFF200" stroke-miterlimit="10"/>
<path d="M49.4792 67.1301C57.9844 67.1301 64.8792 59.0713 64.8792 49.1301C64.8792 39.189 57.9844 31.1301 49.4792 31.1301C40.974 31.1301 34.0792 39.189 34.0792 49.1301C34.0792 59.0713 40.974 67.1301 49.4792 67.1301Z" stroke="#FFF200" stroke-miterlimit="10"/>
<path d="M49.4793 67.1301C55.7808 67.1301 60.8893 59.0713 60.8893 49.1301C60.8893 39.189 55.7808 31.1301 49.4793 31.1301C43.1777 31.1301 38.0693 39.189 38.0693 49.1301C38.0693 59.0713 43.1777 67.1301 49.4793 67.1301Z" stroke="#FFF200" stroke-miterlimit="10"/>
<path d="M49.4793 67.1301C52.1634 67.1301 54.3393 59.0713 54.3393 49.1301C54.3393 39.189 52.1634 31.1301 49.4793 31.1301C46.7952 31.1301 44.6193 39.189 44.6193 49.1301C44.6193 59.0713 46.7952 67.1301 49.4793 67.1301Z" stroke="#FFF200" stroke-miterlimit="10"/>
<path d="M49.4792 64.5201C59.4204 64.5201 67.4792 57.6298 67.4792 49.1301C67.4792 40.6304 59.4204 33.7401 49.4792 33.7401C39.5381 33.7401 31.4792 40.6304 31.4792 49.1301C31.4792 57.6298 39.5381 64.5201 49.4792 64.5201Z" stroke="#FFF200" stroke-miterlimit="10"/>
<path d="M49.4792 60.7201C59.4204 60.7201 67.4792 55.5311 67.4792 49.1301C67.4792 42.7291 59.4204 37.5401 49.4792 37.5401C39.5381 37.5401 31.4792 42.7291 31.4792 49.1301C31.4792 55.5311 39.5381 60.7201 49.4792 60.7201Z" stroke="#FFF200" stroke-miterlimit="10"/>
<path d="M49.4792 54.2001C59.4204 54.2001 67.4792 51.9302 67.4792 49.1301C67.4792 46.33 59.4204 44.0601 49.4792 44.0601C39.5381 44.0601 31.4792 46.33 31.4792 49.1301C31.4792 51.9302 39.5381 54.2001 49.4792 54.2001Z" stroke="#FFF200" stroke-miterlimit="10"/>
<path d="M49.4792 97.5801C62.7451 97.5801 73.4992 75.951 73.4992 49.2701C73.4992 22.5893 62.7451 0.960144 49.4792 0.960144C36.2133 0.960144 25.4592 22.5893 25.4592 49.2701C25.4592 75.951 36.2133 97.5801 49.4792 97.5801Z" stroke="#FFF200" stroke-miterlimit="10"/>
<path d="M66.465 66.2503C85.331 47.3842 93.0207 24.486 83.6404 15.1057C74.2601 5.72543 51.3619 13.4151 32.4959 32.2812C13.6298 51.1472 5.94012 74.0454 15.3204 83.4257C24.7007 92.806 47.5989 85.1163 66.465 66.2503Z" stroke="#FFF200" stroke-miterlimit="10"/>
<path d="M83.6404 83.4257C93.0207 74.0454 85.331 51.1472 66.465 32.2812C47.5989 13.4151 24.7007 5.72543 15.3204 15.1057C5.94012 24.486 13.6298 47.3842 32.4959 66.2503C51.3619 85.1163 74.2601 92.806 83.6404 83.4257Z" stroke="#FFF200" stroke-miterlimit="10"/>
</g>
<defs>
<clipPath id="clip0_4_1539">
<rect width="97.61" height="97.61" fill="white" transform="translate(0.669189 0.460144)"/>
</clipPath>
</defs>
</svg>
