<svg width="75" height="76" viewBox="0 0 75 76" fill="none" xmlns="http://www.w3.org/2000/svg">
<g clip-path="url(#clip0_3_770)">
<path d="M37.5952 75.4728C45.8252 75.4728 53.4352 72.7928 59.6052 68.2728H15.5852C21.7452 72.8028 29.3552 75.4728 37.5952 75.4728Z" fill="#FFF200"/>
<path d="M9.9152 63.1628H65.2652C67.0052 61.2328 68.5452 59.1128 69.8552 56.8428H5.3252C6.6352 59.1128 8.1752 61.2328 9.9152 63.1628Z" fill="#FFF200"/>
<path d="M2.86519 51.7329H72.3152C72.9052 50.2129 73.4052 48.6529 73.7952 47.0529H1.38519C1.77519 48.6629 2.27519 50.2229 2.86519 51.7329Z" fill="#FFF200"/>
<path d="M0.315186 38.2029C0.315186 39.0929 0.355186 39.9629 0.415186 40.8329H74.7552C74.8152 39.9629 74.8552 39.0829 74.8552 38.2029C74.8552 38.0029 74.8452 37.8129 74.8452 37.6229H0.325186C0.325186 37.8129 0.315186 38.0029 0.315186 38.2029Z" fill="#FFF200"/>
<path d="M1.44519 29.0928H73.7452C73.6052 28.5528 73.4552 28.0128 73.2952 27.4828H1.88519C1.72519 28.0128 1.57519 28.5428 1.44519 29.0928Z" fill="#FFF200"/>
<path d="M6.41519 17.7728H68.7752C68.4152 17.2228 68.0452 16.6928 67.6652 16.1628H7.52519C7.14519 16.6928 6.77519 17.2328 6.41519 17.7728Z" fill="#FFF200"/>
<path d="M18.0352 6.46284H57.1452C56.2052 5.88284 55.2452 5.35284 54.2552 4.85284H20.9252C19.9352 5.35284 18.9752 5.88284 18.0352 6.46284Z" fill="#FFF200"/>
</g>
<defs>
<clipPath id="clip0_3_770">
<rect width="74.55" height="74.55" fill="white" transform="translate(0.315186 0.922852)"/>
</clipPath>
</defs>
</svg>
