<svg width="48" height="48" viewBox="0 0 48 48" fill="none" xmlns="http://www.w3.org/2000/svg">
<path d="M23.1001 5.5C33.3001 5.5 41.6001 13.8 41.6001 24C41.6001 34.2 33.3001 42.5 23.1001 42.5C12.9001 42.5 4.6001 34.2 4.6001 24C4.6001 13.8 12.9001 5.5 23.1001 5.5Z" stroke="black" stroke-miterlimit="90" stroke-linecap="round" stroke-linejoin="round"/>
<path d="M34.4002 9.1C43.5002 3.2 46.4002 4.9 40.9002 12.9C35.4002 20.9 23.5002 32.4 14.4002 38.3C5.30022 44.2 2.40022 42.5 7.90022 34.5" stroke="black" stroke-miterlimit="90" stroke-linecap="round" stroke-linejoin="round"/>
<path d="M4.80029 26.5L7.80029 22.2001L12.0003 21.3L15.1003 23.2001L17.1003 26.2001L18.0003 29.1L22.0003 30.2001M35.6003 22.3H37.0003L38.9003 20.6L40.4003 17.3M28.4003 24.9C26.9003 25 25.5003 23.9 25.4003 22.3C25.3003 20.8 26.4003 19.4 28.0003 19.3C29.5003 19.2 30.9003 20.3 31.0003 21.9V22.3M34.3003 38.7001L33.0003 35.4001L31.2003 35.1L31.4003 32.8L36.2003 29.6L41.0003 29.1M19.8003 5.80005V11.3L22.0003 14.3L25.8003 16.1L28.7003 14.7L31.6003 15.8L32.7003 18.1L33.0003 19.8M25.3003 32.7001L25.9003 35.1L24.2003 37.7001L20.2003 39.5L14.5003 40.4001M12.1003 14.2C13.5003 14.2 14.6003 15.3 14.6003 16.7C14.6003 18.1 13.5003 19.2 12.1003 19.2C10.7003 19.2 9.60029 18.1 9.60029 16.7C9.60029 15.3 10.7003 14.2 12.1003 14.2Z" stroke="black" stroke-miterlimit="90" stroke-linecap="round" stroke-linejoin="round"/>
</svg>
