<svg width="634" height="634" viewBox="0 0 634 634" fill="none" xmlns="http://www.w3.org/2000/svg">
<g clip-path="url(#clip0_8_2557)">
<path d="M317.033 473.048C490.331 473.048 630.818 403.198 630.818 317.032C630.818 230.867 490.331 161.017 317.033 161.017C143.734 161.017 3.2478 230.867 3.2478 317.032C3.2478 403.198 143.734 473.048 317.033 473.048Z" stroke="#FFF200" stroke-miterlimit="10"/>
<path d="M317.033 433.037C381.603 433.037 433.947 380.693 433.947 316.123C433.947 251.553 381.603 199.209 317.033 199.209C252.463 199.209 200.118 251.553 200.118 316.123C200.118 380.693 252.463 433.037 317.033 433.037Z" stroke="#FFF200" stroke-miterlimit="10"/>
<path d="M317.033 433.037C372.276 433.037 417.059 380.693 417.059 316.123C417.059 251.553 372.276 199.209 317.033 199.209C261.79 199.209 217.006 251.553 217.006 316.123C217.006 380.693 261.79 433.037 317.033 433.037Z" stroke="#FFF200" stroke-miterlimit="10"/>
<path d="M317.033 433.037C357.963 433.037 391.143 380.693 391.143 316.123C391.143 251.553 357.963 199.209 317.033 199.209C276.103 199.209 242.922 251.553 242.922 316.123C242.922 380.693 276.103 433.037 317.033 433.037Z" stroke="#FFF200" stroke-miterlimit="10"/>
<path d="M317.033 433.037C334.467 433.037 348.599 380.693 348.599 316.123C348.599 251.553 334.467 199.209 317.033 199.209C299.599 199.209 285.466 251.553 285.466 316.123C285.466 380.693 299.599 433.037 317.033 433.037Z" stroke="#FFF200" stroke-miterlimit="10"/>
<path d="M317.033 416.085C381.603 416.085 433.947 371.33 433.947 316.123C433.947 260.916 381.603 216.161 317.033 216.161C252.463 216.161 200.118 260.916 200.118 316.123C200.118 371.33 252.463 416.085 317.033 416.085Z" stroke="#FFF200" stroke-miterlimit="10"/>
<path d="M317.033 391.403C381.603 391.403 433.947 357.699 433.947 316.123C433.947 274.547 381.603 240.843 317.033 240.843C252.463 240.843 200.118 274.547 200.118 316.123C200.118 357.699 252.463 391.403 317.033 391.403Z" stroke="#FFF200" stroke-miterlimit="10"/>
<path d="M317.033 349.054C381.603 349.054 433.947 334.31 433.947 316.123C433.947 297.936 381.603 283.192 317.033 283.192C252.463 283.192 200.118 297.936 200.118 316.123C200.118 334.31 252.463 349.054 317.033 349.054Z" stroke="#FFF200" stroke-miterlimit="10"/>
<path d="M317.033 630.817C403.198 630.817 473.048 490.331 473.048 317.032C473.048 143.734 403.198 3.24762 317.033 3.24762C230.868 3.24762 161.017 143.734 161.017 317.032C161.017 490.331 230.868 630.817 317.033 630.817Z" stroke="#FFF200" stroke-miterlimit="10"/>
<path d="M427.359 427.322C549.898 304.783 599.845 156.054 538.918 95.1266C477.99 34.1993 329.261 84.1458 206.722 206.685C84.1823 329.225 34.2358 477.954 95.1631 538.881C156.09 599.808 304.82 549.862 427.359 427.322Z" stroke="#FFF200" stroke-miterlimit="10"/>
<path d="M538.918 538.881C599.845 477.954 549.898 329.225 427.359 206.685C304.82 84.1458 156.09 34.1993 95.1631 95.1266C34.2358 156.054 84.1823 304.783 206.722 427.322C329.261 549.862 477.99 599.808 538.918 538.881Z" stroke="#FFF200" stroke-miterlimit="10"/>
</g>
<defs>
<clipPath id="clip0_8_2557">
<rect width="634" height="634" fill="white"/>
</clipPath>
</defs>
</svg>
